# xmcd
#
# Track frame offsets:
#	150
#	13277
#	43333
#	55601
#	67629
#	82386
#	97933
#	110372
#	124324
#	166032
#	177052
#	195226
#	204744
#	221432
#	237181
#	257194
#
# Disc length: 3620 seconds
#
# Revision: 0
# Processed by: cddbd v1.5.2PL0 Copyright (c) Steve Scherf et al.
# Submitted via: audiograbber 1.83.01
#
DISCID=d70e2210
DTITLE=3 and 2 - Szüreti Mulatós
DYEAR=2001
DGENRE=Country
TTITLE0=A Babám Fekete Roma Lány
TTITLE1=Pincebuli (Itt A Szüret Ideje)
TTITLE2=Kislány, Hallod A Muzsikát
TTITLE3=Végrehajtó
TTITLE4=Az én Kis Harmónikám
TTITLE5=Kéményseprõ
TTITLE6=Lesz Maga Juszt Is Az Enyém
TTITLE7=Megpihen A Lombon
TTITLE8=Szüreti Mulatós
TTITLE9=Azt Hallottam
TTITLE10=Húszéves Kor
TTITLE11=Lenn A Falu Végén
TTITLE12=Kislány Vigyázz /szép Kislány Az Ica
TTITLE13=Csendes Kis Falum, Jó éjszakát
TTITLE14=Csárdáscsokor/felszállott A Galamb-Házasodom-Lõre
TTITLE15=Szól A Nóta/vége, Vége, Vége Már
EXTD=EAN CODE:  4011222233868\n\nORDER NO:  223 386\n\nPC: 225\n\n24 BIT 96 KHZ
EXTT0=
EXTT1=
EXTT2=
EXTT3=
EXTT4=
EXTT5=
EXTT6=
EXTT7=
EXTT8=
EXTT9=
EXTT10=
EXTT11=
EXTT12=
EXTT13=
EXTT14=
EXTT15=
PLAYORDER=
